# xmcd
#
# Track frame offsets:
#	150
#	10653
#	25176
#	34712
#	44703
#	59910
#	75677
#	86098
#	96897
#	110817
#	123104
#	133716
#	144853
#	158111
#	170831
#	182739
#	193270
#	204428
#	214389
#	225004
#	234960
#	244420
#	253834
#	262968
#	275427
#	287745
#	298796
#	308747
#	318823
#	328416
#
# Disc length: 4520 seconds
# Revision: 0
# Processed by: cddbd v1.5.2PL0 Copyright (c) Steve Scherf et al.
# Submitted via: dBpowerAMP V12.0
#
DISCID=bf11a61e
DTITLE=Various Artist - Soul Breakout '59
DYEAR=1959
DGENRE=Rhythm and Blues
TTITLE0=The Isley Brothers - Shout (Part 1)
TTITLE1=Ray Charles - What'd I Say (Part 1)
TTITLE2=Jackie Wilson - That's Why (I Love You So)
TTITLE3=Brook Benton - Hurtin' Inside
TTITLE4=Jimmy Barnes - No Regrets
TTITLE5=Ray Charles - (Night Time Is) The Right Time
TTITLE6=Baby Washington - The Time
TTITLE7=Jerry Butler - Lost
TTITLE8=Beverly Ann Gibson - Love's Burning Fire
TTITLE9=Sam Cooke - Everybody Likes To Cha Cha Cha
TTITLE10=Marv Johnson - Come To Me
TTITLE11=The Falcons - You're So Fine
TTITLE12=Jesse Belvin - Guess Who
TTITLE13=James Brown - I Want You So Bad
TTITLE14=Bobby Bland - I'm Not Ashamed
TTITLE15=Brook Benton - Endlessly
TTITLE16=Roy Hamilton - I Need Your Lovin'
TTITLE17=The Drifters - There Goes My Baby
TTITLE18=Bobby Bland - I'll Take Care Of You
TTITLE19=Baby Washington - The Bells (On Our Wedding Day)
TTITLE20=Sam Cooke - Only Sixteen
TTITLE21=The Shirelles - Dedicated To The One I Love
TTITLE22=Jackie Wilson - You Better Know It
TTITLE23=The Miracles - Bad Girl
TTITLE24=Marv Johnson - You Got What It Takes
TTITLE25=The Drifters - Dance With Me
TTITLE26=Sammy Turner - Always
TTITLE27=The Falcons - Just For Your Love
TTITLE28=Jackie Wilson - I'll Be Satisfied
TTITLE29=Ray Charles - I'm Movin' On
EXTD=
EXTT0=
EXTT1=
EXTT2=
EXTT3=
EXTT4=
EXTT5=
EXTT6=
EXTT7=
EXTT8=
EXTT9=
EXTT10=
EXTT11=
EXTT12=
EXTT13=
EXTT14=
EXTT15=
EXTT16=
EXTT17=
EXTT18=
EXTT19=
EXTT20=
EXTT21=
EXTT22=
EXTT23=
EXTT24=
EXTT25=
EXTT26=
EXTT27=
EXTT28=
EXTT29=
PLAYORDER=
